/* XPM */
static char * bottom_right_active_xpm[] = {
"4 4 3 1",
" 	c None",
".	c #1A1E24",
"+	c #00DFFF",
"...+",
"..++",
".++ ",
"++  "};
