/* XPM */
static char *close_xpm[] = {
"26 26 53 1",
" 	c None",
"B	c #05BCD7",
"C	c #1A1E24",
"D	c #182D35",
"E	c #125967",
"F	c #08A5BD",
"G	c #01D8F7",
"H	c #00DFFF",
"I	c #08A4BC",
"J	c #125866",
"K	c #182E36",
"L	c #07ADC6",
"M	c #04C3DF",
"N	c #0C879B",
"O	c #106B7C",
"P	c #0C889B",
"Q	c #04C4E0",
"R	c #07ACC5",
"S	c #04C4E1",
"T	c #01D6F4",
"U	c #106676",
"V	c #1A2026",
"W	c #106877",
"X	c #01D6F5",
"Y	c #15434E",
"Z	c #15414C",
"a	c #15444F",
"b	c #07ABC4",
"c	c #15424D",
"d	c #00DBFC",
"e	c #125765",
"f	c #0C8296",
"g	c #0C899E",
"h	c #0C8397",
"i	c #0C889D",
"j	c #08A3BB",
"k	c #1A1F25",
"l	c #01D7F6",
"m	c #0C889C",
"n	c #01D6F6",
"o	c #106A7B",
"p	c #0F6C7C",
"q	c #182D34",
"r	c #0F6D7D",
"s	c #182C33",
"t	c #1A2127",
"u	c #08A2BA",
"v	c #106776",
"w	c #106979",
"x	c #125764",
"y	c #154550",
"z	c #07A9C2",
"0	c #106878",
"HHHHHHHHHHHHHHHHHHHHHHHHHH",
"CCCCCCCCCCCCCCCCCCCCCCCCCC",
"CCCCCCCCCCCCCCCCCCCCCCCCCC",
"CCCCCCCCCCCCCCCCCCCCCCCCCC",
"CCCCCCCCCCCCDDCCCCCCCCCCCC",
"CCCCCCCCCEFGHHGIJCCCCCCCCC",
"CCCCCCCKLHMNOOPQHRDCCCCCCC",
"CCCCCCKSTUVCCCCVWXQDCCCCCC",
"CCCCCCRTYZCCCCCCZaXbCCCCCC",
"CCCCCEHUcdPCCCCPdcWHeCCCCC",
"CCCCCFMVCfHgCChHiCVQjCCCCC",
"CCCCklNCCCPHNNHPCCCmnkCCCC",
"CCCCDHoCCCCfHHiCCCCpHqCCCC",
"CCCCqHOCCCCfHHiCCCCrHsCCCC",
"CCCCklPCCCPHNNHPCCCiXkCCCC",
"CCCCCIMVChHiCCfHgCtSuCCCCC",
"CCCCCJHvcdPCCCCPdcwHxCCCCC",
"CCCCCCRXaZCCCCCCZyXzCCCCCC",
"CCCCCCDQX0VCCCCVwnMqCCCCCC",
"CCCCCCCDbHSmppmSHzqCCCCCCC",
"CCCCCCCCCejnHHnuxCCCCCCCCC",
"CCCCCCCCCCCCqqCCCCCCCCCCCC",
"CCCCCCCCCCCCCCCCCCCCCCCCCC",
"CCCCCCCCCCCCCCCCCCCCCCCCCC",
"CCCCCCCCCCCCCCCCCCCCCCCCCC",
"CCCCCCCCCCCCCCCCCCCCCCCCCC"
};
