/* XPM */
static char *close_xpm[] = {
"26 26 47 1",
" 	c None",
"B	c #05BCD7",
"C	c #1A1E24",
"D	c #182D35",
"E	c #125967",
"F	c #08A5BD",
"G	c #01D8F7",
"H	c #00DFFF",
"I	c #08A4BC",
"J	c #125866",
"K	c #182E36",
"L	c #07ADC6",
"M	c #04C3DF",
"N	c #0C879B",
"O	c #106B7C",
"P	c #0C889B",
"Q	c #04C4E0",
"R	c #07ACC5",
"S	c #04C4E1",
"T	c #01D6F4",
"U	c #106676",
"V	c #1A2026",
"W	c #106877",
"X	c #01D6F5",
"Y	c #15434E",
"Z	c #15444F",
"a	c #07ABC4",
"b	c #125765",
"c	c #08A3BB",
"d	c #1A1F25",
"e	c #01D7F6",
"f	c #0C889C",
"g	c #01D6F6",
"h	c #106A7B",
"i	c #0F6C7C",
"j	c #182D34",
"k	c #0F6D7D",
"l	c #182C33",
"m	c #0C889D",
"n	c #1A2127",
"o	c #08A2BA",
"p	c #106776",
"q	c #106979",
"r	c #125764",
"s	c #154550",
"t	c #07A9C2",
"u	c #106878",
"HHHHHHHHHHHHHHHHHHHHHHHHHH",
"CCCCCCCCCCCCCCCCCCCCCCCCCC",
"CCCCCCCCCCCCCCCCCCCCCCCCCC",
"CCCCCCCCCCCCCCCCCCCCCCCCCC",
"CCCCCCCCCCCCDDCCCCCCCCCCCC",
"CCCCCCCCCEFGHHGIJCCCCCCCCC",
"CCCCCCCKLHMNOOPQHRDCCCCCCC",
"CCCCCCKSTUVCCCCVWXQDCCCCCC",
"CCCCCCRTYCCCCCCCCZXaCCCCCC",
"CCCCCEHUCCCCCCCCCCWHbCCCCC",
"CCCCCFMVCCCCCCCCCCVQcCCCCC",
"CCCCdeNCCCCCCCCCCCCfgdCCCC",
"CCCCDHhCCCCCCCCCCCCiHjCCCC",
"CCCCjHOCCCCCCCCCCCCkHlCCCC",
"CCCCdePCCCCCCCCCCCCmXdCCCC",
"CCCCCIMVCCCCCCCCCCnSoCCCCC",
"CCCCCJHpCCCCCCCCCCqHrCCCCC",
"CCCCCCRXZCCCCCCCCsXtCCCCCC",
"CCCCCCDQXuVCCCCVqgMjCCCCCC",
"CCCCCCCDaHSfiifSHtjCCCCCCC",
"CCCCCCCCCbcgHHgorCCCCCCCCC",
"CCCCCCCCCCCCjjCCCCCCCCCCCC",
"CCCCCCCCCCCCCCCCCCCCCCCCCC",
"CCCCCCCCCCCCCCCCCCCCCCCCCC",
"CCCCCCCCCCCCCCCCCCCCCCCCCC",
"CCCCCCCCCCCCCCCCCCCCCCCCCC"
};
