/* XPM */
static char *hide_xpm[] = {
"26 26 60 1",
" 	c None",
"B	c #05BCD7",
"C	c #1A1E24",
"D	c #182D35",
"E	c #125967",
"F	c #08A5BD",
"G	c #01D8F7",
"H	c #00DFFF",
"I	c #08A4BC",
"J	c #125866",
"K	c #182E36",
"L	c #07ADC6",
"M	c #04C3DF",
"N	c #0C879B",
"O	c #106B7C",
"P	c #0C889B",
"Q	c #04C4E0",
"R	c #07ACC5",
"S	c #04C4E1",
"T	c #01D6F4",
"U	c #106676",
"V	c #1A2026",
"W	c #106877",
"X	c #01D6F5",
"Y	c #15434E",
"Z	c #15444F",
"a	c #07ABC4",
"b	c #125765",
"c	c #182931",
"d	c #08A3BB",
"e	c #163D47",
"f	c #1A1F25",
"g	c #01D7F6",
"h	c #173740",
"i	c #03C9E6",
"j	c #02CDEA",
"k	c #0C889C",
"l	c #01D6F6",
"m	c #106A7B",
"n	c #17353F",
"o	c #03C6E3",
"p	c #02CFEC",
"q	c #163F49",
"r	c #163B45",
"s	c #03CBE9",
"t	c #163942",
"u	c #0F6C7C",
"v	c #182D34",
"w	c #0F6D7D",
"x	c #182C33",
"y	c #173841",
"z	c #0C889D",
"0	c #1A2127",
"1	c #08A2BA",
"2	c #106776",
"3	c #106979",
"4	c #125764",
"5	c #154550",
"6	c #07A9C2",
"7	c #106878",
"HHHHHHHHHHHHHHHHHHHHHHHHHH",
"CCCCCCCCCCCCCCCCCCCCCCCCCC",
"CCCCCCCCCCCCCCCCCCCCCCCCCC",
"CCCCCCCCCCCCCCCCCCCCCCCCCC",
"CCCCCCCCCCCCDDCCCCCCCCCCCC",
"CCCCCCCCCEFGHHGIJCCCCCCCCC",
"CCCCCCCKLHMNOOPQHRDCCCCCCC",
"CCCCCCKSTUVCCCCVWXQDCCCCCC",
"CCCCCCRTYCCCCCCCCZXaCCCCCC",
"CCCCCEHUCCCCCCCCCCWHbCCCCC",
"CCCCCFMVcdeCCCCedcVQdCCCCC",
"CCCCfgNChijeCCejihCklfCCCC",
"CCCCDHmCCnopqrsitCCuHvCCCC",
"CCCCvHOCCCtijjitCCCwHxCCCC",
"CCCCfgPCCCCyiiyCCCCzXfCCCC",
"CCCCCIMVCCCCttCCCC0S1CCCCC",
"CCCCCJH2CCCCCCCCCC3H4CCCCC",
"CCCCCCRXZCCCCCCCC5X6CCCCCC",
"CCCCCCDQX7VCCCCV3lMvCCCCCC",
"CCCCCCCDaHSkuukSH6vCCCCCCC",
"CCCCCCCCCbdlHHl14CCCCCCCCC",
"CCCCCCCCCCCCvvCCCCCCCCCCCC",
"CCCCCCCCCCCCCCCCCCCCCCCCCC",
"CCCCCCCCCCCCCCCCCCCCCCCCCC",
"CCCCCCCCCCCCCCCCCCCCCCCCCC",
"CCCCCCCCCCCCCCCCCCCCCCCCCC"
};
