/* XPM */
static char * left_active_xpm[] = {
"4 21 3 1",
" 	c None",
".	c #00DFFF",
"+	c #1A1E24",
".+++",
".+++",
".+++",
".+++",
".+++",
".+++",
".+++",
".+++",
".+++",
".+++",
".+++",
".+++",
".+++",
".+++",
".+++",
".+++",
".+++",
".+++",
".+++",
".+++",
".+++"};
