/* XPM */
static char *maximize_xpm[] = {
"26 26 35 1",
" 	c None",
"B	c #05BCD7",
"C	c #1A1E24",
"D	c #173139",
"E	c #125B6A",
"F	c #115E6D",
"G	c #1A2127",
"H	c #182E37",
"I	c #02D3F1",
"J	c #00DFFF",
"K	c #099AB1",
"L	c #04C4E0",
"M	c #125866",
"N	c #0C879B",
"O	c #125B69",
"P	c #0999AF",
"Q	c #099DB4",
"R	c #17353F",
"S	c #13515E",
"T	c #19272E",
"U	c #099AB0",
"V	c #0E7588",
"W	c #163F4A",
"X	c #15414C",
"Y	c #0A98AE",
"Z	c #06B2CC",
"a	c #06B6D1",
"b	c #144752",
"c	c #154550",
"d	c #144C58",
"e	c #0E788A",
"f	c #17333C",
"g	c #183039",
"h	c #02D2F0",
"i	c #182F38",
"JJJJJJJJJJJJJJJJJJJJJJJJJJ",
"CCCCCCCCCCCCCCCCCCCCCCCCCC",
"CCCCCCCCCCCCCCCCCCCCCCCCCC",
"CCCCCCCCCCCCCCCCCCCCCCCCCC",
"CCCCCCCCCCCCCCCCCCCCCCCCCC",
"CCCCCCDEFFFFFCCCCCGHCCCCCC",
"CCCCCDIJJJJJJCCCCGKLHCCCCC",
"CCCCCMJNFFFFFCCCGKJKGCCCCC",
"CCCCCOJOCCCCCCCGPJQGCCCCCC",
"CCCCCOJOCCCCCCGPJQGCCCCCCC",
"CCCCCOJOCRSTCGUJKGCCCCCCCC",
"CCCCCOJOCVJWGPJQGCCCCCCCCC",
"CCCCCOJOCVJXYJQGCCCCCCCCCC",
"CCCCCOJOCVJZJUGCCCOJOCCCCC",
"CCCCCOJOCVJJabcTCCOJOCCCCC",
"CCCCCOJOCVJJJJJdCCOJOCCCCC",
"CCCCCOJOCbeeeeefCCOJOCCCCC",
"CCCCCOJOCCCCCCCCCCOJOCCCCC",
"CCCCCMJNFFFFFFFFFFNJMCCCCC",
"CCCCCghJJJJJJJJJJJJhiCCCCC",
"CCCCCCgEFFFFFFFFFFEiCCCCCC",
"CCCCCCCCCCCCCCCCCCCCCCCCCC",
"CCCCCCCCCCCCCCCCCCCCCCCCCC",
"CCCCCCCCCCCCCCCCCCCCCCCCCC",
"CCCCCCCCCCCCCCCCCCCCCCCCCC",
"CCCCCCCCCCCCCCCCCCCCCCCCCC"
};
