/* XPM */
static char *maximize_xpm[] = {
"26 26 35 1",
" 	c None",
"B	c #05BCD7",
"C	c #1A1E24",
"D	c #173139",
"E	c #125B6A",
"F	c #115E6D",
"G	c #183039",
"H	c #02D3F1",
"I	c #00DFFF",
"J	c #02D2F0",
"K	c #125866",
"L	c #0C879B",
"M	c #125B69",
"N	c #17333C",
"O	c #0E788A",
"P	c #144752",
"Q	c #144C58",
"R	c #0E7588",
"S	c #19272E",
"T	c #154550",
"U	c #06B6D1",
"V	c #1A2127",
"W	c #099AB0",
"X	c #06B2CC",
"Y	c #0A98AE",
"Z	c #099DB4",
"a	c #15424D",
"b	c #0999AF",
"c	c #163F4A",
"d	c #099AB1",
"e	c #13515E",
"f	c #17353F",
"g	c #182E37",
"h	c #04C4E0",
"i	c #182F38",
"IIIIIIIIIIIIIIIIIIIIIIIIII",
"CCCCCCCCCCCCCCCCCCCCCCCCCC",
"CCCCCCCCCCCCCCCCCCCCCCCCCC",
"CCCCCCCCCCCCCCCCCCCCCCCCCC",
"CCCCCCCCCCCCCCCCCCCCCCCCCC",
"CCCCCCDEFFFFFFFFFFEGCCCCCC",
"CCCCCDHIIIIIIIIIIIIJGCCCCC",
"CCCCCKILFFFFFFFFFFLIKCCCCC",
"CCCCCMIMCCCCCCCCCCMIMCCCCC",
"CCCCCMIMCCNOOOOOPCMIMCCCCC",
"CCCCCMIMCCQIIIIIRCMIMCCCCC",
"CCCCCMIMCCSTPUIIRCMIMCCCCC",
"CCCCCMIMCCCVWIXIRCMIMCCCCC",
"CCCCCCCCCCVYIZaIRCMIMCCCCC",
"CCCCCCCCCVbIZVcIRCMIMCCCCC",
"CCCCCCCCVdIWVCSefCMIMCCCCC",
"CCCCCCCVbIZVCCCCCCMIMCCCCC",
"CCCCCCVbIZVCCCCCCCMIMCCCCC",
"CCCCCVdIdVCCCFFFFFLIKCCCCC",
"CCCCCghdVCCCCIIIIIIJiCCCCC",
"CCCCCCgVCCCCCFFFFFEiCCCCCC",
"CCCCCCCCCCCCCCCCCCCCCCCCCC",
"CCCCCCCCCCCCCCCCCCCCCCCCCC",
"CCCCCCCCCCCCCCCCCCCCCCCCCC",
"CCCCCCCCCCCCCCCCCCCCCCCCCC",
"CCCCCCCCCCCCCCCCCCCCCCCCCC"
};
