/* XPM */
static char *shade_xpm[] = {
"26 26 13 1",
" 	c None",
"1	c #05BCD7",
"2	c #1A1E24",
"3	c #125D6B",
"4	c #099FB6",
"5	c #125C6A",
"6	c #08A2BA",
"7	c #00DFFF",
"8	c #03C7E4",
"9	c #173841",
"A	c #04C3DF",
"B	c #01D7F6",
"C	c #07ACC5",
"77777777777777777777777777",
"22222222222222222222222222",
"22222222222222222222222222",
"22222222222222222222222222",
"22222222222222222222222222",
"22222222222222222222222222",
"22222222222222222222222222",
"22222223444444444452222222",
"22222226777777777762222222",
"22222226777777777762222222",
"22222226899999999862222222",
"22222226A22222222A62222222",
"22222226A22222222A62222222",
"22222226A22222222A62222222",
"22222226A22222222A62222222",
"22222226A22222222A62222222",
"22222226A22222222A62222222",
"22222226BCCCCCCCCB62222222",
"22222225444444444452222222",
"22222222222222222222222222",
"22222222222222222222222222",
"22222222222222222222222222",
"22222222222222222222222222",
"22222222222222222222222222",
"22222222222222222222222222",
"22222222222222222222222222"
};
