/* XPM */
static char * top_left_active_xpm[] = {
"4 26 3 1",
" 	c None",
".	c #00DFFF",
"+	c #1A1E24",
"   .",
"  ..",
" ..+",
"..++",
".+++",
".+++",
".+++",
".+++",
".+++",
".+++",
".+++",
".+++",
".+++",
".+++",
".+++",
".+++",
".+++",
".+++",
".+++",
".+++",
".+++",
".+++",
".+++",
".+++",
".+++",
".+++"};
