/* XPM */
static char * top_left_inactive_xpm[] = {
"4 26 2 1",
" 	c None",
".	c #1A1E24",
"   .",
"  ..",
" ...",
"....",
"....",
"....",
"....",
"....",
"....",
"....",
"....",
"....",
"....",
"....",
"....",
"....",
"....",
"....",
"....",
"....",
"....",
"....",
"....",
"....",
"....",
"...."};
